Coordinates
version=1
nRows=9
nColumns=24
inDegrees=yes

Units are S.I. units (second, meters, Newtons, ...)
Angles are in degrees.

endheader
time	pelvis_tilt	pelvis_list	pelvis_rotation	pelvis_tx	pelvis_ty	pelvis_tz	hip_flexion_r	hip_adduction_r	hip_rotation_r	knee_angle_r	ankle_angle_r	subtalar_angle_r	mtp_angle_r	hip_flexion_l	hip_adduction_l	hip_rotation_l	knee_angle_l	ankle_angle_l	subtalar_angle_l	mtp_angle_l	lumbar_extension	lumbar_bending	lumbar_rotation
      4.34000000	     -8.92178622	     -1.62455459	     11.10320094	     -1.90452012	     -0.02458658	     -0.32732772	     31.95585760	     -4.01894302	     -9.22670472	     -7.92276432	     -1.38364985	      6.37697564	     13.24247830	     -6.74034306	     -0.05620186	     19.74710239	    -12.73131706	      6.88824970	     -1.45254538	     11.94609153	      4.30289670	     -0.61836834	     -9.19820211
      4.34500000	     -9.00595474	     -1.71873456	     11.19315350	     -1.89780503	     -0.02544078	     -0.32678217	     32.04294817	     -3.96165327	     -9.57637628	     -8.52394605	     -1.94307147	      6.26933736	     13.68789139	     -6.78743343	     -0.24033038	     19.62888990	    -13.25189580	      6.83480626	     -0.84813045	     12.00994136	      4.56378228	     -0.54264311	     -9.25339651
      4.35000000	     -9.12542695	     -1.85589664	     11.22507613	     -1.89105112	     -0.02630060	     -0.32614862	     32.19222880	     -3.83675600	     -9.85053601	     -9.14034293	     -2.70354344	      6.08050661	     14.35361119	     -6.76635510	     -0.46403820	     19.35540507	    -13.79184146	      6.67139058	     -0.20662621	     12.46715493	      4.87641758	     -0.41969527	     -9.25278658
      4.35500000	     -9.21901740	     -2.01558366	     11.16334214	     -1.88425653	     -0.02707858	     -0.32545838	     32.32299337	     -3.63356986	     -9.94868128	     -9.71757574	     -3.79147971	      5.75141352	     15.60432057	     -6.79318170	     -0.70727202	     19.05597616	    -14.27006065	      6.23031508	      0.17301283	     13.38578010	      5.16781362	     -0.24176238	     -9.11638415
      4.36000000	     -9.32181960	     -2.24962787	     11.21236316	     -1.87757451	     -0.02774834	     -0.32486115	     32.48943776	     -3.41649288	    -10.12260626	    -10.40203168	     -4.54241139	      5.56292512	     15.78261919	     -6.70493829	     -1.02539492	     18.80268850	    -14.91178531	      6.00055115	      0.82569440	     13.80074522	      5.46800735	     -0.01008434	     -9.17857987
      4.36500000	     -9.44336028	     -2.51807043	     11.12701023	     -1.87086828	     -0.02838012	     -0.32408778	     32.71218602	     -3.07998335	    -10.02894463	    -11.10492616	     -5.40276689	      5.26606678	     16.03641071	     -6.58341206	     -1.37351322	     18.34100466	    -15.56120339	      5.66704375	      1.51733032	     14.47483330	      5.79414873	      0.27596932	     -9.06784795
      4.37000000	     -9.55184501	     -2.83629336	     11.02212502	     -1.86417472	     -0.02889379	     -0.32331893	     32.93851268	     -2.67079151	     -9.81482491	    -11.83471624	     -6.24793206	      4.95088694	     16.21127301	     -6.44316201	     -1.77237078	     17.86089242	    -16.23918757	      5.23560704	      2.17940247	     15.26468780	      6.11391290	      0.62775850	     -8.95607840
      4.37500000	     -9.64906588	     -3.20227196	     10.88490954	     -1.85748998	     -0.02930151	     -0.32254037	     33.16877321	     -2.18169713	     -9.45146005	    -12.59665738	     -6.99077595	      4.66893417	     16.24098529	     -6.27558039	     -2.21761895	     17.35298596	    -16.97283410	      4.74449172	      2.86543955	     16.07593954	      6.42839432	      1.04716858	     -8.78411198
      4.38000000	     -9.74065636	     -3.57821350	     10.70225666	     -1.85083714	     -0.02958938	     -0.32166813	     33.41918720	     -1.63250541	     -8.94471645	    -13.40792060	     -7.69091182	      4.32324130	     16.09404553	     -6.07962624	     -2.68139954	     16.69235878	    -17.73585050	      4.12517615	      3.60205391	     17.05614648	      6.72638667	      1.47411299	     -8.65821573
